<?xml version="1.0" encoding="UTF-8"?>
<svg id="svg" xmlns="http://www.w3.org/2000/svg" xmlns:xlink="http://www.w3.org/1999/xlink" version="1.1" viewBox="0 0 185.8904391 127.4740638">
  <!-- Generator: Adobe Illustrator 29.1.0, SVG Export Plug-In . SVG Version: 2.1.0 Build 142)  -->
  <defs>
    <style>
      .st0 {
        fill: none;
      }

      .st1 {
        fill: url(#linear-gradient2);
      }

      .st2 {
        fill: url(#linear-gradient1);
      }

      .st3 {
        fill: url(#linear-gradient);
      }

      .st4 {
        fill: #17388d;
      }

      .st5 {
        clip-path: url(#clippath);
      }
    </style>
    <clipPath id="clippath">
      <rect class="st0" x="-51.6853955" y="1.6827266" width="299.9910278" height="138.6691895"/>
    </clipPath>
    <linearGradient id="linear-gradient" x1="183.7575041" y1="62.9784902" x2="1.8114624" y2="63.6622927" gradientTransform="translate(0 135.8278564) scale(1 -1)" gradientUnits="userSpaceOnUse">
      <stop offset="0" stop-color="#2d4c98"/>
      <stop offset="1" stop-color="#0e7aaf"/>
    </linearGradient>
    <linearGradient id="linear-gradient1" x1="109.5440768" y1="23.074574" x2="172.6143881" y2="52.3900499" gradientTransform="translate(0 135.8278564) scale(1 -1)" gradientUnits="userSpaceOnUse">
      <stop offset="0" stop-color="#a2c728"/>
      <stop offset="1" stop-color="#33883b"/>
    </linearGradient>
    <linearGradient id="linear-gradient2" x1="90.6058006" y1="139.8129907" x2="79.4874851" y2="97.0356519" gradientTransform="translate(0 135.8278564) scale(1 -1)" gradientUnits="userSpaceOnUse">
      <stop offset="0" stop-color="#a6c429"/>
      <stop offset="1" stop-color="#127e3d"/>
    </linearGradient>
  </defs>
  <g class="st5">
    <g>
      <path class="st3" d="M160.8648975,47.1308353c.5361328-.3511314,1.1411133-.9851608,1.59375-1.4973717,4.4501953-5.0360718,7.284668-11.2530899,7.8061523-17.9742508.2234469-2.494659.1125999-3.3260115-.1772461-6.6084099,23.1723633,16.0621986,16.3842773,43.2896194-10.9760742,48.0040016-16.7460938,2.8852005-31.4853516-3.3673935-47.3027344-7.647171-18.7671356-5.2155914-39.5689545-7.3837395-58.2610779-.8647995-16.8720703,5.5869293-31.1378937,21.8636475-12.5756836,36.0770493,5.4867172,4.2012863,14.0113831,5.5106506,20.6708527,4.328392,7.1176834-1.3497696,11.8927689-4.6278381,16.4394989-10.0626297,3.0328064-4.2335129,4.8641663-10.8176117,5.8139648-15.9195786.4130859-2.218811.5235443-4.7729416,1.5741272-6.7915878,1.1083069-2.1290512,3.0710449-3.5985985,5.4448242-3.9965897,3.8122559-.6393013,20.0131226,2.8399582,22.9442902,4.9313812,1.3212891.9432831,2.1591797,2.3353729,2.4038086,3.9413834.3251953,2.1444321-.4921875,4.4188766-1.1308594,6.4384079-2.2822266,7.4203491-5.8110352,14.3983383-10.4355469,20.635849-9.7192383,12.8984909-23.0417023,21.1550903-39.0934601,23.3927917-13.0936508,1.7303314-26.4095154-.3000336-38.3916473-5.8535767-2.1933136-1.0229416-5.6800766-2.8034973-7.573967-4.2913513-.8868179-.5019531-2.8794403-2.1691666-3.7428207-2.9040909-5.3613281-4.5632629-9.9805679-10.3488998-12.4999504-16.9660873-2.9961891-7.8694382-2.4061508-16.0611725,1.1450691-23.6670532,12.9222717-27.67696,45.8805161-30.0807114,72.3508224-24.656311,7.0541077,1.4455299,12.2854919,3.5376816,19.068161,5.6854782,17.7700195,5.6273499,36.6547852,10.8288879,54.8745117,4.0911789,3.9052734-1.4442101,8.2529297-3.8800316,10.03125-7.8250809l-.0000153.0000267Z"/>
      <path class="st4" d="M78.08232,90.8856532c3.0328064-4.2335129,4.8641663-10.8176117,5.8139648-15.9195786.4130859-2.218811.5235443-4.7729416,1.5741272-6.7915878,1.1083069-2.1290512,3.0710449-3.5985985,5.4448242-3.9965897,3.8122559-.6393013,20.0131378,2.8399582,22.9442902,4.9313812,1.3212891.9432831,2.1591797,2.3353729,2.4038086,3.9413834.3251953,2.1444321-.4921875,4.4188766-1.1308594,6.4384079-2.2822266,7.4203491-5.8110352,14.3983383-10.4355469,20.635849-9.7192383,12.8984909-23.0417023,21.1550903-39.0934601,23.3927917-13.0936508,1.7303314-26.4095154-.3000336-38.3916473-5.8535767-2.1933136-1.0229416-5.6800766-2.8034973-7.573967-4.2913513,1.1352463.0316315,3.9546432.5108795,5.2516098.6627274,3.019043.3584518,6.0534668.5722427,9.0928726.6406174,13.7976608.3647537,28.5068817-3.9195709,37.8813019-14.4892807,1.4213409-1.6026535,6.1729965-7.4201965,6.2186966-9.3012085l-.0000153.0000153Z"/>
      <path class="st2" d="M122.4596241,109.7569148c1.2319336-1.3885727,3.5039062-3.2625504,4.9321289-4.7673798,4.480957-4.8132095,8.0244141-10.4191818,10.4501953-16.5304718,1.1425781-2.9027786,1.6552734-5.5926361,2.6586914-8.4670105,1.7006836-4.871048,6.7910156-3.9942398,10.6025391-3.9473877,2.1621094.0063019,4.3256836-.0730667,6.4819336-.2379379,2.9384766-.1973801,5.7817383-.8634796,8.6748047-1.0290909,2.3027344-.1317825,4.1806641,1.9057465,4.171875,4.1474075-.0073242,1.6426163-.2856445,3.163269-.5595703,4.7686996-1.4238281,8.2933502-5.2236328,15.9955673-10.9394531,22.1726074-6.4321289,7.0229492-14.7304688,11.7469788-23.652832,14.8746719-.9477539.3320999-4.5322266,1.5975189-5.2470703,1.5694122-1.097168.4135132-2.4741211.7199783-3.6357422.9873581-8.9384766,2.0587692-18.1831055,2.9188766-27.3457031,2.8712921-.9829102-.0051193-2.2119141-.6413498-2.0258789-1.822731.2373047-1.4923935,2.5854492-1.8432312,3.9199219-2.3318481,5.8828125-2.1498489,11.4741211-5.0305099,16.6391602-8.5741959,1.7475586-1.2150497,3.1962891-2.4159012,4.875-3.6833801v-.0000153Z"/>
      <path class="st4" d="M160.8648975,47.1308353c2.1459961-11.0012321-5.7099609-15.463459-15.7851562-13.9725304-5.9443359.879879-9.6474609,4.1421394-12.7998047,9.1102676-1.8046875,2.958271-2.8798828,6.711792-7.0327148,7.1159286-5.8066406.5650597-12.7104492-.543251-18.1757812-2.5693588-2.7919922-1.0346603-4.2890625-4.9794083-2.7905273-7.5423203,7.9833984-13.64571,19.5761719-23.2963409,35.5620117-25.2503796,8.3422852-1.0248604,16.8061523.2689705,24.4614258,3.7393303,1.9233398.86656,4.1396484,2.0029793,5.7832031,3.2890491.4561165,1.8413681.3492632,5.1945717.1772461,6.6084099-.5214844,6.7211609-3.355957,12.9381714-7.8061523,17.9742508-.4526367.5121994-1.0576172,1.1462288-1.59375,1.4973717v-.0000191Z"/>
      <path class="st1" d="M98.6720264,1.6827266h7.6552734c1.2597656.28578,15.5083008.05011,11.7275391,3.5499699-.1069336.0991001-5.4316406,1.2454402-6.4467773,1.5117199-3.1025391.80864-6.1333008,1.8710299-9.0615234,3.1764503-8.4342804,3.7697296-15.5879822,9.5662613-20.377594,17.5283909-.6751556,1.1036205-1.2889252,2.2434101-1.8383789,3.4145393-.4608459.9962902-1.1031647,2.6021595-1.6896973,3.4527607-.9372101,1.3828583-2.4029312,2.3186798-4.0520477,2.587368-.6663589.1068916-1.3453064.1080589-2.0119629.0033684-4.9570312-.79422-11.1281281-2.9755516-16.2900925-3.84972-4.321579-.7318401-5.1460037-5.9610596-2.3903275-9.7270203,8.2842789-11.3219404,20.9308624-18.1812801,34.6548309-20.4912891,3.4618683-.59833,6.7721252-.6573,10.1207581-1.15652v-.000018Z"/>
    </g>
  </g>
</svg>