<svg xmlns="http://www.w3.org/2000/svg" data-name="Layer 1" viewBox="0 0 523.569 193.967" class="header-logo--U3RZTN"><path d="M99.514 64.492c10.725-9.117 23.548-16.973 30.234-29.75.061-1.68-19.766-.722-21.939-.92-8.553-.783-5.915-10.468-1.204-10.468h12.64c.551-5.876-2.991-21.265 7.574-18.905 6.135 1.37 2.543 14.154 3.588 18.844 4.552.815 8.93 1.18 10.844 6.08 2.887 7.388-7.418 16.833-6.59 17.918 5.77 1.005 15.21 9.83 7.012 14.049-4.573 2.354-6.673-2.491-10.712-3.602v36.533c0 2.11-3.158 4.474-5.294 4.566-1.93.084-5.805-2.155-5.805-3.952V62.65c-6.15 3.233-13.678 14.784-20.348 6.14zM340.604 99.49h-3.7c-.802-.987-2.913-1.991-3.383-3.078-.119-.276-.933-4.362-.933-4.597v-40.83c-3.08 2.785-6.241 10.379-11.442 7.397-2.935-1.683-3.226-5.563-2.266-8.463 1.445-4.362 9.402-13.972 12.18-19.184a113 113 0 0 0 3.05-6.173c2.418-5.302 4.81-15.512 7.448-19.6 3.01-4.663 11.163-5.415 11.971.327.857 6.089-6.888 17.188-8.573 23.32-1.771 20.614 2.244 44.869-.036 65.048-.367 3.246-1.438 4.455-4.316 5.833" style="fill: rgb(30, 86, 178);"></path><path d="M385.615 23.354h24.973c.185 0 3.046 1.279 3.372 1.554 2.961 2.505 2.164 7.984-1.375 9.645-9.294.61-18.822.986-28.206 1.078l-.614 7.982c3.117-.97 8.633 1.02 8.633 4.608v35.612c0 .065.86.921.925.921h9.865c1.733 0 1.896-7.28 2.577-9.1 2.164-5.781 10.366-4.642 11.24 1.482.895 6.265-.701 16.438-7.814 18.508-4.728 1.375-22.77 1.765-26.365-1.665-.594-.567-2.143-3.46-2.143-4.006V59.58l-8.527 18.833c-3.617 5.195-11.771 18.432-18.36 19.194-4.193.485-7.38-2.12-7.063-6.397.278-3.748 8.113-9.98 10.765-13.272 9.839-12.212 12.935-27.142 15.169-42.304H355.71c-4.982 0-8.715-5.055-5.87-9.534.546-.86 3.158-2.746 4.02-2.746h19.115c.066 0 .925-.856.925-.921V5.855c0-2.238 3.794-4.37 5.931-4.575 10.554-1.016 4.53 16.22 5.784 22.074M156.858 67.255c-.64 3.609-4.44 4.598-7.692 3.973-2.525-.486-3.402-3.943-3.746-6.091-1.515-9.451-1.241-42.962.485-52.383.548-2.996 2.443-5.334 5.393-6.296 5.111-1.666 28.647-1.488 34.771-.833 5.246.56 9.12 2.554 9.665 8.181 1.624 16.753-1.156 36.265-.176 53.304-.121 4.357-6.423 5.525-9.09 3.201-.445-.389-1.863-3.318-1.863-3.67V18.135c0-.065-.86-.921-.925-.921h-25.897c-.066 0-.925.856-.925.92z" style="fill: rgb(30, 86, 178);"></path><path d="M170.423 78.614c-1.432-.339-1.014.263-1.412.776-4.481 5.761-6.753 8.616-12.941 12.868-4.645 3.192-20.948 12.675-21.457 1.385-.279-6.179 9.254-7.909 13.803-10.848 18.378-11.87 15.424-27.602 16.451-46.86.242-4.532-1.802-14.803 5.262-15.082 5.912-.233 6.169 5.076 6.486 9.537.628 8.849-1.016 18.727-1.28 27.651.423 2.106 4.887 1.414 5.557 4.93.735 3.857-.918 20.72.282 22.436.693.992 7.074.848 8.116.021 2.092-1.66-.398-10.896 5.627-12.22 9.803-2.155 8.021 16.116 3.591 20.787-3.523 3.714-15.411 3.697-20.23 2.893-2.512-.418-7.855-3.475-7.855-6.3zM274.011 82.298H307c.587 0 2.928 2.116 3.31 2.84 1.994 3.777-.405 7.745-4.529 8.226h-90.668c-6.574-.77-6.899-9.565-.567-11.031l47.16-.316c2.577-7.279 5.286-14.58 7.538-21.966 1.927-6.321 3.787-18.029 6.302-23.197 2.333-4.794 10.602-4.176 11.384.97.635 4.177-3.89 17.444-5.354 22.227-2.294 7.486-5.21 14.789-7.564 22.247M266.612 19.363c.248.799 1.404.868 2.127.952 10.263 1.2 22.674-1.096 33.175.134 5.804 2.522 4.172 10.797-2.285 10.916l-79.53-.068c-4.254-.746-6.79-5.123-4.06-8.879.364-.502 2.415-2.134 2.787-2.134h35.454V5.24c0-2.44 4.036-5.27 6.488-5.24 2.177.024 5.844 2.402 5.844 4.626 0 2.962-.602 12.8 0 14.736" style="fill: rgb(30, 86, 178);"></path><path d="M236.839 35.148c2.698-.612 5.491.24 6.877 2.716 2.172 3.879 5.45 17.227 6.69 22.198.837 3.356 2.944 10.2 2.671 13.332-.508 5.826-8.419 7.437-11.244 1.344-3.943-8.504-4.389-22.184-8.854-31.09-1.178-3.407.104-7.65 3.86-8.5M395.92 5.067c10.026-2.28 21.035 17.676 9.123 17.725-4.233.017-10.177-6.763-11.94-10.267-1.475-2.928-.598-6.68 2.816-7.458M15.83 119.832h43.812c5.171 1.886 7.932 6.648 4.598 11.607-.477.709-3.065 3.094-3.672 3.094H15.213c.2.601-.617 1.329-.617 1.531v13.17h41.035c2.857 0 5.936 4.803 5.915 7.662-.018 2.376-2.903 7.039-5.298 7.039H15.213c-.169 1.824-.75 14.7.926 14.7H59.95c.496 0 3.513 1.72 4.025 2.302 3.719 4.243 1.507 11.16-4.057 12.37-16.666-1.41-36.8 1.985-53.05.044-3.478-.416-5.335-2.417-6.465-5.527-.537-19.958-.538-41.69 0-61.867-.934-4.008 1.952-5.484 5.554-6.125zM276.85 119.832c2.01 1.11 5.553 3.971 5.553 6.431v52.373h36.099c.607 0 4.094 2.108 4.641 2.743 3.856 4.475.233 10.495-4.787 11.813-13.859-.814-30.086 1.59-43.668.147-4.866-.518-7.493-3.379-7.737-8.247 1.551-18.274-1.987-39.714.024-57.605.496-4.42 2.433-5.779 6.172-7.655zM161.948 130.425c8.219-.84 21.077.945 27.31 6.833 4.065 3.842 3.146 11.945-2.953 13.054-5.584 1.015-6.1-2.033-10.223-3.65-3.79-1.487-15.77-2.038-18.938.433-2.43 1.894-2.322 4.283.612 5.508 10.521 4.394 31.54 1.162 35.368 16.957 6.598 27.227-41.707 29.618-52.925 15.174-4.012-5.167.958-12.958 8.189-11.19 8.368 2.047 10.48 6.175 21.395 5.086 6.295-.627 14.103-5.164 3.902-8.15-10.21-2.99-25.71-.859-31.372-12.96-6.866-14.675 5.691-25.672 19.635-27.095M482.333 154.134h9.565c1.53 0 17.108-20.666 20.36-22.668 6.837-3.8 13.074 2.37 10.32 9.633-1.617 3.405-16.726 18.619-16.788 20.675-.072 2.43 13.386 15.952 15.672 19.367 2.535 3.788 3.386 7.449-.91 10.625-4.521 3.343-7.945 1.26-11.384-2.098-2.66-2.597-16.188-20.22-17.887-20.22h-8.948v16.845c0 6.776-10.99 10.034-14.49 3.357l-.193-55.298c2.972-5.004 9.438-5.666 12.836-.743.547.792 1.847 3.581 1.847 4.293zM204.51 130.365c2.57-.35 5.233.77 6.956 2.612 2.608 2.295 14.998 22.05 16.35 22.38.845.208 1.613-1.033 2.117-1.55 4.91-5.036 12.218-19.72 17.347-22.593 6.73-3.77 13.942 4.063 9.947 10.486l-20.618 27.923c-2.887 5.863 2.15 15.286-2.67 21.24-2.605 3.217-7.413 3.203-10.473.643-5.419-4.534-1.258-14.858-3.051-20.86-.915-3.064-11.177-15.045-13.797-18.77-1.642-2.335-7.29-9.752-7.845-11.808-1.21-4.482.88-9.04 5.737-9.703" style="fill: rgb(30, 86, 178);"></path><path d="M400.369 142.907c-1.293 1.672-4.104 7.853-4.481 8.125-.325.234-1.327-.626-4.568-.626s-4.19 1.218-4.659.995c-.425-.202-3.676-6.437-4.928-7.968-28.905-35.364-75.459 7.261-50.568 37.946 16.869 20.795 48.58 13.466 55.862-11.9.58-2.021-.014-6.471 2.557-7.267 5.442-1.686 4.478 5.411 5.557 8.95 8.146 26.713 46.372 30.173 58.926 4.835 16.834-33.978-30.137-63.575-53.698-33.09m-42.38 35.719c-22.993 1.942-25.172-32.087-2.882-33.516 21.532-1.381 24.595 31.682 2.882 33.516m82.264-8.378c-8.81 15.845-34.013 7.995-31.297-11.467.66-4.732 6.733-12.123 11.501-13.084 15.213-3.067 27.402 10.871 19.796 24.55" style="fill: rgb(28, 190, 42);"></path><path d="m133.265 183.646-25.194-50.328c-7.322-5.613-10.806-1.889-14.596 4.479-6.442 10.82-15.778 29.592-20.787 41.232-2 4.65-4.731 10.066 1.197 13.339 9.93 5.48 11.28-9.333 15.201-10.537 1.068-.328 4.654-.676 6.012-.77 3.466-.244 19.169-.454 21.166 1.4.978.909 2.682 6.067 4.482 8.105 5.61 6.35 15.038 1.054 12.52-6.92m-25.492-16.649H96.05c.823-1.833 4.384-12.13 6.47-11.638.744.176 5.583 9.882 5.254 11.638" style="fill: rgb(30, 86, 178);"></path></svg>